<?xml version="1.0" encoding="utf-8"?>
<!-- Generator: Adobe Illustrator 18.0.0, SVG Export Plug-In . SVG Version: 6.00 Build 0)  -->
<!DOCTYPE svg PUBLIC "-//W3C//DTD SVG 1.1//EN" "http://www.w3.org/Graphics/SVG/1.1/DTD/svg11.dtd">
<svg version="1.1" id="Layer_5" xmlns="http://www.w3.org/2000/svg" xmlns:xlink="http://www.w3.org/1999/xlink" x="0px" y="0px"
	 viewBox="274.8 90 450 560" enable-background="new 274.8 90 450 560" xml:space="preserve">
<g>
	<polygon fill="none" points="515.2,463.2 593,385.4 608.3,370 593,354.7 499.8,447.8 484.5,463.2 499.8,478.5 	"/>
	<linearGradient id="SVGID_1_" gradientUnits="userSpaceOnUse" x1="285.6473" y1="370.0139" x2="714.0436" y2="370.0139">
		<stop  offset="0" style="stop-color:#41A586"/>
		<stop  offset="1" style="stop-color:#1D9584"/>
	</linearGradient>
	<path fill="url(#SVGID_1_)" d="M685.8,292.6c-2.3-2.7-4.7-5.4-7.3-7.9l-7.8-7.8L593,354.7l15.4,15.4L593,385.4l-77.8,77.8
		l-15.4,15.4l-15.4-15.4l-77.8-77.8L391.4,370l15.4-15.4l77.8-77.8l15.4-15.4l17.8-17.8c33.2-33.2,33.2-86.9,0-120L499.8,106
		l-77.8,77.8l-15.4,15.4l-77.8,77.8l-7.8,7.8c-2.6,2.6-5,5.2-7.3,7.9c-37.7,45-37.7,109.9,0,154.9c2.3,2.7,4.7,5.4,7.3,7.9l7.8,7.8
		l77.8,77.8l15.4,15.4l77.8,77.8l77.8-77.8l15.4-15.4l77.8-77.8l7.8-7.8c2.6-2.6,5-5.2,7.3-7.9C723.5,402.5,723.5,337.5,685.8,292.6
		z"/>
	<polygon fill="#6FCF7C" points="515.2,276.9 422.1,370 499.8,447.8 593,354.7 670.8,276.9 593,199.1 	"/>
</g>
</svg>
